#!OML:ASF X:\für Bonn\!DataBase\2005_08_10_Bjorn_Final\c3d\bjorn.ASF
:FULLY-SPECIFIED
:DEGREES
31
root -21.0951 19.4327 -0.200625 -352.226 -86.6115 -2.87645
lowerback -12.3874 1.2146 -2.51036
upperback 4.95908 2.322 -2.57387
thorax 12.4419 1.00303 -0.881315
lowerneck -1.04501 -3.47542 4.68588
upperneck 6.35341 -4.66147 -2.97935
head 1.99806 -2.30436 -1.84021
rclavicle -5.36719e-015 7.95139e-015
rhumerus -8.20313 9.32506 -84.4166
rradius 105.969
rwrist -5.97213
rhand -17.8299 11.0551
rfingers 7.12502
rthumb 8.43452 -18.7565
lclavicle -5.36719e-015 7.95139e-015
lhumerus -23.9744 8.18706 79.9567
lradius 18.7274
lwrist -38.9334
lhand -13.3999 3.59665
lfingers 7.12502
lthumb 12.7077 33.19
rfemur -10.8032 -12.766 15.9996
rtibia 24.0695
rfoot -10.8726 17.934
rtoes 1.55638
lfemur -13.5091 17.4139 -17.515
ltibia 25.523
lfoot -6.86435 -20.3945
ltoes 5.4123
32
root -21.0881 19.4335 -0.205166 -352.068 -86.7669 -3.04867
lowerback -12.395 1.31662 -2.62123
upperback 4.94863 2.4862 -2.65667
thorax 12.4349 1.07496 -0.872422
lowerneck -0.97191 -3.5692 4.70338
upperneck 6.37123 -4.7896 -2.88616
head 1.98703 -2.36533 -1.81289
rclavicle -2.80286e-014 3.97569e-014
rhumerus -5.59429 9.22389 -83.4843
rradius 105.617
rwrist -6.06073
rhand -18.2664 11.3546
rfingers 7.12502
rthumb 8.01326 -18.4735
lclavicle -2.80286e-014 3.97569e-014
lhumerus -23.7851 8.3149 79.8968
lradius 18.4809
lwrist -39.1036
lhand -12.8325 3.46203
lfingers 7.12502
lthumb 13.2547 33.0206
rfemur -10.8553 -12.7398 16.0069
rtibia 24.0976
rfoot -10.7942 18.0628
rtoes 1.63361
lfemur -13.477 17.3802 -17.5055
ltibia 25.4901
lfoot -6.91533 -20.1959
ltoes 5.33784
33
root -21.0808 19.4346 -0.209609 -351.707 -86.8919 -3.41069
lowerback -12.4283 1.41519 -2.72536
upperback 4.94853 2.64576 -2.73475
thorax 12.4554 1.1446 -0.862741
lowerneck -0.978817 -3.66598 4.75349
upperneck 6.42916 -4.92407 -2.83148
head 2.00181 -2.42957 -1.80713
rclavicle 1.8487e-014 -9.54166e-015
rhumerus -2.96015 9.03804 -82.5398
rradius 105.13
rwrist -6.18465
rhand -18.5393 11.443
rfingers 7.12502
rthumb 7.74979 -18.3949
lclavicle 1.8487e-014 -9.54166e-015
lhumerus -23.5782 8.43467 79.8564
lradius 18.2528
lwrist -39.3274
lhand -12.3426 3.26511
lfingers 7.12502
lthumb 13.7268 32.7923
rfemur -10.9203 -12.7353 16.0361
rtibia 24.1258
rfoot -10.7271 18.1689
rtoes 1.6845
lfemur -13.4706 17.307 -17.4851
ltibia 25.4586
lfoot -6.92627 -19.9787
ltoes 5.39745
34
root -21.0735 19.436 -0.214264 -351.26 -87.0462 -3.87309
lowerback -12.445 1.52806 -2.82108
upperback 4.95739 2.82306 -2.81804
thorax 12.4766 1.22336 -0.859818
lowerneck -1.02096 -3.75957 4.74966
upperneck 6.50023 -5.05701 -2.72807
head 2.0295 -2.49302 -1.77756
rclavicle -2.18663e-014 9.54166e-015
rhumerus -0.325788 8.77709 -81.5942
rradius 104.525
rwrist -6.32851
rhand -18.7556 11.4492
rfingers 7.12502
rthumb 7.54103 -18.3964
lclavicle -2.18663e-014 9.54166e-015
lhumerus -23.3441 8.60593 79.8069
lradius 18.008
lwrist -39.6697
lhand -11.9623 3.00966
lfingers 7.12502
lthumb 14.0933 32.5117
rfemur -10.9744 -12.7501 16.0573
rtibia 24.1543
rfoot -10.6351 18.3341
rtoes 1.75751
lfemur -13.4374 17.2691 -17.4604
ltibia 25.4244
lfoot -6.95939 -19.7741
ltoes 5.34576
35
root -21.0662 19.4367 -0.218582 -351.077 -87.186 -4.07071
lowerback -12.4553 1.6454 -2.91617
upperback 4.957 3.00751 -2.92201
thorax 12.4847 1.30662 -0.878491
lowerneck -1.07628 -3.85051 4.79964
upperneck 6.59033 -5.1878 -2.64727
head 2.06441 -2.55454 -1.76566
rclavicle 4.45278e-014 -2.46493e-014
rhumerus 2.25707 8.44192 -80.678
rradius 103.779
rwrist -6.49571
rhand -18.9142 11.4851
rfingers 7.12502
rthumb 7.38798 -18.3659
lclavicle 4.45278e-014 -2.46493e-014
lhumerus -23.145 8.59406 79.788
lradius 17.8139
lwrist -39.8284
lhand -11.6402 2.7786
lfingers 7.12502
lthumb 14.4037 32.2588
rfemur -11.0267 -12.7522 16.0672
rtibia 24.183
rfoot -10.5505 18.4478
rtoes 1.74215
lfemur -13.4142 17.2932 -17.4543
ltibia 25.3946
lfoot -7.00012 -19.6295
ltoes 5.21822
36
root -21.0587 19.4377 -0.223186 -350.912 -87.3124 -4.24314
lowerback -12.4771 1.75967 -3.01512
upperback 4.96091 3.18997 -3.03368
thorax 12.5052 1.38867 -0.903671
lowerneck -1.16506 -3.94909 4.85789
upperneck 6.70472 -5.33136 -2.56173
head 2.11283 -2.62186 -1.75561
rclavicle -1.74931e-014 -9.54166e-015
rhumerus 4.79468 8.00759 -79.8411
rradius 102.926
rwrist -6.66789
rhand -18.94 11.4965
rfingers 7.12502
rthumb 7.36302 -18.3554
lclavicle -1.74931e-014 -9.54166e-015
lhumerus -22.9285 8.59808 79.7459
lradius 17.6121
lwrist -40.0368
lhand -11.4239 2.47217
lfingers 7.12502
lthumb 14.6121 31.9374
rfemur -11.0822 -12.7208 16.0778
rtibia 24.2107
rfoot -10.4737 18.5404
rtoes 1.89733
lfemur -13.3966 17.273 -17.4486
ltibia 25.3647
lfoot -7.02124 -19.4694
ltoes 5.14586
37
root -21.0522 19.4382 -0.227612 -350.313 -87.4589 -4.8573
lowerback -12.497 1.89128 -3.08497
upperback 4.96069 3.3906 -3.14597
thorax 12.5216 1.48174 -0.941692
lowerneck -1.2226 -4.05366 4.94577
upperneck 6.78323 -5.48131 -2.49666
head 2.14255 -2.69224 -1.75565
rclavicle -1.64991e-014 3.81667e-014
rhumerus 7.27819 7.46736 -79.109
rradius 101.911
rwrist -6.79896
rhand -18.8135 11.5193
rfingers 7.12502
rthumb 7.4852 -18.3282
lclavicle -1.64991e-014 3.81667e-014
lhumerus -22.7223 8.63075 79.7087
lradius 17.4196
lwrist -40.3039
lhand -11.3097 2.23746
lfingers 7.12502
lthumb 14.7222 31.6947
rfemur -11.1354 -12.7925 16.1013
rtibia 24.2402
rfoot -10.3771 18.7471
rtoes 1.918
lfemur -13.3674 17.2412 -17.4235
ltibia 25.3348
lfoot -7.0796 -19.264
ltoes 5.03605
38
root -21.0454 19.4389 -0.232064 -349.73 -87.5972 -5.45458
lowerback -12.5032 2.02408 -3.14961
upperback 4.95421 3.59152 -3.26625
thorax 12.5238 1.57595 -0.991758
lowerneck -1.30174 -4.15857 5.01954
upperneck 6.9019 -5.63432 -2.41253
head 2.19013 -2.7636 -1.74897
rclavicle -2.3059e-014 2.22639e-014
rhumerus 9.68955 6.88944 -78.4263
rradius 100.798
rwrist -7.00181
rhand -18.6246 11.539
rfingers 7.12502
rthumb 7.66747 -18.302
lclavicle -2.3059e-014 2.22639e-014
lhumerus -22.5354 8.51018 79.6915
lradius 17.2484
lwrist -40.4329
lhand -11.3136 2.02614
lfingers 7.12502
lthumb 14.7183 31.4836
rfemur -11.1828 -12.7557 16.1246
rtibia 24.2686
rfoot -10.2985 18.8494
rtoes 2.07218
lfemur -13.3372 17.1977 -17.3992
ltibia 25.3048
lfoot -7.12087 -19.0557
ltoes 4.92633
39
root -21.0388 19.4401 -0.236117 -349.362 -87.7373 -5.8369
lowerback -12.5195 2.15184 -3.22603
upperback 4.96004 3.78888 -3.38864
thorax 12.5462 1.66709 -1.0381
lowerneck -1.39774 -4.26164 5.09048
upperneck 7.00999 -5.7861 -2.32433
head 2.23762 -2.83418 -1.74093
rclavicle -1.35174e-014 4.29375e-014
rhumerus 12.0429 6.35808 -77.7473
rradius 99.6125
rwrist -7.1721
rhand -18.4836 11.4499
rfingers 7.12502
rthumb 7.80361 -18.3861
lclavicle -1.35174e-014 4.29375e-014
lhumerus -22.3316 8.56119 79.6456
lradius 17.0739
lwrist -40.706
lhand -11.4471 1.84474
lfingers 7.12502
lthumb 14.5897 31.3116
rfemur -11.2319 -12.768 16.1337
rtibia 24.2977
rfoot -10.2237 18.9864
rtoes 2.02899
lfemur -13.3056 17.1074 -17.3867
ltibia 25.2754
lfoot -7.13943 -18.8266
ltoes 4.99165
40
root -21.0328 19.4406 -0.240457 -348.978 -87.8708 -6.23487
lowerback -12.5343 2.28531 -3.31049
upperback 4.96072 3.99469 -3.50827
thorax 12.5615 1.7615 -1.07499
lowerneck -1.51521 -4.37466 5.17033
upperneck 7.15223 -5.95215 -2.25833
head 2.29906 -2.91176 -1.74367
rclavicle -3.49861e-014 9.54166e-015
rhumerus 14.3425 5.84701 -77.0635
rradius 98.3267
rwrist -7.36592
rhand -18.3585 11.3475
rfingers 7.12502
rthumb 7.92436 -18.484
lclavicle -3.49861e-014 9.54166e-015
lhumerus -22.1371 8.57591 79.6173
lradius 16.8958
lwrist -40.9907
lhand -11.6635 1.69959
lfingers 7.12502
lthumb 14.3812 31.1814
rfemur -11.2784 -12.8141 16.1394
rtibia 24.3246
rfoot -10.1097 19.1649
rtoes 2.26003
lfemur -13.2767 17.1017 -17.3773
ltibia 25.2449
lfoot -7.18847 -18.6604
ltoes 4.86694
41
root -21.0264 19.4413 -0.244422 -348.193 -88.0015 -7.03501
lowerback -12.5439 2.43213 -3.36185
upperback 4.96281 4.21391 -3.6431
thorax 12.5793 1.86555 -1.14425
lowerneck -1.62928 -4.49073 5.29988
upperneck 7.28772 -6.12351 -2.20917
head 2.35582 -2.99102 -1.76048
rclavicle 1.8487e-014 -7.95139e-015
rhumerus 16.5533 5.31611 -76.3792
rradius 96.9956
rwrist -7.60971
rhand -18.1843 11.2295
rfingers 7.12502
rthumb 8.09243 -18.5956
lclavicle 1.8487e-014 -7.95139e-015
lhumerus -21.943 8.5591 79.5734
lradius 16.7496
lwrist -41.2437
lhand -11.9699 1.56117
lfingers 7.12502
lthumb 14.086 31.0638
rfemur -11.3256 -12.8323 16.1633
rtibia 24.3548
rfoot -10.031 19.3052
rtoes 2.18709
lfemur -13.2433 17.0499 -17.3533
ltibia 25.2126
lfoot -7.23058 -18.4508
ltoes 4.75303
